<svg width="39" height="28" viewBox="0 0 39 28" fill="none" xmlns="http://www.w3.org/2000/svg">
<path d="M30.525 2.84C30.525 4.36 29.325 5.56 27.805 5.56C26.285 5.56 25.085 4.36 25.085 2.84C25.085 1.32 26.285 0.119999 27.805 0.119999C29.325 0.119999 30.525 1.32 30.525 2.84ZM34.685 8.44C34.685 9.96 33.485 11.16 31.965 11.16C30.445 11.16 29.245 9.96 29.245 8.44C29.245 6.92 30.445 5.72 31.965 5.72C33.485 5.72 34.685 6.92 34.685 8.44ZM38.845 14.04C38.845 15.56 37.645 16.76 36.125 16.76C34.605 16.76 33.405 15.56 33.405 14.04C33.405 12.52 34.605 11.32 36.125 11.32C37.645 11.32 38.845 12.52 38.845 14.04ZM30.725 14.04C30.725 15.56 29.525 16.76 28.005 16.76C26.485 16.76 25.285 15.56 25.285 14.04C25.285 12.52 26.485 11.32 28.005 11.32C29.525 11.32 30.725 12.52 30.725 14.04ZM34.685 19.64C34.685 21.16 33.485 22.36 31.965 22.36C30.445 22.36 29.245 21.16 29.245 19.64C29.245 18.12 30.445 16.92 31.965 16.92C33.485 16.92 34.685 18.12 34.685 19.64ZM22.605 14.04C22.605 15.56 21.405 16.76 19.885 16.76C18.365 16.76 17.165 15.56 17.165 14.04C17.165 12.52 18.365 11.32 19.885 11.32C21.405 11.32 22.605 12.52 22.605 14.04ZM30.525 25.24C30.525 26.76 29.325 27.96 27.805 27.96C26.285 27.96 25.085 26.76 25.085 25.24C25.085 23.72 26.285 22.52 27.805 22.52C29.325 22.52 30.525 23.72 30.525 25.24ZM14.485 14.04C14.485 15.56 13.285 16.76 11.765 16.76C10.245 16.76 9.04501 15.56 9.04501 14.04C9.04501 12.52 10.245 11.32 11.765 11.32C13.285 11.32 14.485 12.52 14.485 14.04ZM6.36501 14.04C6.36501 15.56 5.165 16.76 3.645 16.76C2.125 16.76 0.925003 15.56 0.925003 14.04C0.925003 12.52 2.125 11.32 3.645 11.32C5.165 11.32 6.36501 12.52 6.36501 14.04Z" fill="#cffc50"/>
</svg>
