<svg width="39" height="28" viewBox="0 0 39 28" fill="none" xmlns="http://www.w3.org/2000/svg">
<path d="M38.72 14.04C38.72 15.56 37.52 16.76 36 16.76C34.48 16.76 33.28 15.56 33.28 14.04C33.28 12.52 34.48 11.32 36 11.32C37.52 11.32 38.72 12.52 38.72 14.04ZM30.6 14.04C30.6 15.56 29.4 16.76 27.88 16.76C26.36 16.76 25.16 15.56 25.16 14.04C25.16 12.52 26.36 11.32 27.88 11.32C29.4 11.32 30.6 12.52 30.6 14.04ZM14.56 2.84C14.56 4.36 13.36 5.56 11.84 5.56C10.32 5.56 9.11999 4.36 9.11999 2.84C9.11999 1.32 10.32 0.119999 11.84 0.119999C13.36 0.119999 14.56 1.32 14.56 2.84ZM22.48 14.04C22.48 15.56 21.28 16.76 19.76 16.76C18.24 16.76 17.04 15.56 17.04 14.04C17.04 12.52 18.24 11.32 19.76 11.32C21.28 11.32 22.48 12.52 22.48 14.04ZM10.4 8.44C10.4 9.96 9.19999 11.16 7.67999 11.16C6.15999 11.16 4.95999 9.96 4.95999 8.44C4.95999 6.92 6.15999 5.72 7.67999 5.72C9.19999 5.72 10.4 6.92 10.4 8.44ZM14.36 14.04C14.36 15.56 13.16 16.76 11.64 16.76C10.12 16.76 8.91999 15.56 8.91999 14.04C8.91999 12.52 10.12 11.32 11.64 11.32C13.16 11.32 14.36 12.52 14.36 14.04ZM6.23999 14.04C6.23999 15.56 5.03999 16.76 3.51999 16.76C1.99999 16.76 0.799988 15.56 0.799988 14.04C0.799988 12.52 1.99999 11.32 3.51999 11.32C5.03999 11.32 6.23999 12.52 6.23999 14.04ZM10.4 19.64C10.4 21.16 9.19999 22.36 7.67999 22.36C6.15999 22.36 4.95999 21.16 4.95999 19.64C4.95999 18.12 6.15999 16.92 7.67999 16.92C9.19999 16.92 10.4 18.12 10.4 19.64ZM14.56 25.24C14.56 26.76 13.36 27.96 11.84 27.96C10.32 27.96 9.11999 26.76 9.11999 25.24C9.11999 23.72 10.32 22.52 11.84 22.52C13.36 22.52 14.56 23.72 14.56 25.24Z" fill="#cffc50"
/>
</svg>
